# xmcd
#
# Track frame offsets:
#	150
#	19207
#	37450
#	55062
#	79945
#	104430
#	126595
#	140842
#	159357
#	183852
#
# Disc length: 2772 seconds
#
# Revision: 4248717599
# Processed by: cddbd v1.5.2PL0 Copyright (c) Steve Scherf et al.
# Submitted via: EZCDAudioConverter 8.0.2.1
#
DISCID=900ad20a
DTITLE=Ngọc Lan - Cho Người Tình Lỡ
DYEAR=1990
DGENRE=country
TTITLE0=Khánh Hà - Mơ hoa
TTITLE1=Ngọc Lan - Niềm đau dài
TTITLE2=Khánh Hà - Búp bê bằng sứ
TTITLE3=Ngọc Lan - Cho Người Tình Lỡ
TTITLE4=Khánh Hà - Cho em niềm yêu
TTITLE5=Ngọc Lan - Tôi đi tìm lại mùa xuân
TTITLE6=Khánh Hà - Tình yêu tuổi thơ
TTITLE7=Ngọc Lan - Men đắng cuộc tình
TTITLE8=Khánh Hà - Trên da tình yêu
TTITLE9=Ngọc Lan - Kỷ niệm trong đêm
EXTD=
EXTT0=
EXTT1=
EXTT2=
EXTT3=
EXTT4=
EXTT5=
EXTT6=
EXTT7=
EXTT8=
EXTT9=
PLAYORDER=
